<svg width="35" height="35" viewBox="0 0 35 35" fill="none" xmlns="http://www.w3.org/2000/svg">
<rect width="35" height="35" rx="5.01818" fill="#3D7172"/>
<path d="M8 17C8 14.3478 9.05357 11.8043 10.9289 9.92893C12.8043 8.05357 15.3478 7 18 7C20.6522 7 23.1957 8.05357 25.0711 9.92893C26.9464 11.8043 28 14.3478 28 17C28 19.6522 26.9464 22.1957 25.0711 24.0711C23.1957 25.9464 20.6522 27 18 27C15.3478 27 12.8043 25.9464 10.9289 24.0711C9.05357 22.1957 8 19.6522 8 17ZM17.375 8.346C16.537 8.601 15.706 9.371 15.016 10.665C14.789 11.095 14.593 11.541 14.431 12H17.375V8.346ZM13.112 12C13.321 11.336 13.589 10.692 13.912 10.076C14.129 9.668 14.378 9.277 14.659 8.91C13.1102 9.55227 11.7777 10.6245 10.819 12H13.112ZM12.385 16.375C12.423 15.279 12.558 14.227 12.775 13.25H10.092C9.62591 14.2313 9.34778 15.2913 9.272 16.375H12.385ZM14.059 13.25C13.813 14.2747 13.6713 15.3217 13.636 16.375H17.375V13.25H14.059ZM18.625 13.25V16.375H22.363C22.3281 15.3218 22.1868 14.2748 21.941 13.25H18.625ZM13.638 17.625C13.672 18.678 13.813 19.725 14.058 20.75H17.375V17.625H13.638ZM18.625 17.625V20.75H21.941C22.175 19.794 22.324 18.74 22.364 17.625H18.625ZM14.431 22C14.604 22.483 14.8 22.93 15.016 23.335C15.706 24.629 16.539 25.398 17.375 25.654V22H14.431ZM14.659 25.09C14.3782 24.7226 14.1284 24.3326 13.912 23.924C13.5881 23.308 13.3203 22.6641 13.112 22H10.82C11.7787 23.3755 13.1102 24.4478 14.659 25.09ZM12.775 20.75C12.549 19.7226 12.4184 18.6765 12.385 17.625H9.273C9.34784 18.7089 9.62601 19.769 10.093 20.75H12.775ZM21.341 25.09C22.8898 24.4478 24.2223 23.3755 25.181 22H22.887C22.6787 22.6641 22.4109 23.308 22.087 23.924C21.871 24.3326 21.6215 24.7226 21.341 25.09ZM18.625 22V25.654C19.463 25.399 20.294 24.629 20.984 23.335C21.2 22.93 21.396 22.483 21.569 22H18.625ZM23.225 20.75H25.907C26.374 19.769 26.6522 18.7089 26.727 17.625H23.615C23.5816 18.6765 23.4511 19.7226 23.225 20.75ZM26.727 16.375C26.6512 15.2913 26.3731 14.2313 25.907 13.25H23.225C23.442 14.227 23.577 15.279 23.615 16.375H26.728H26.727ZM22.087 10.076C22.397 10.656 22.665 11.301 22.887 12H25.181C24.2223 10.6245 22.8898 9.55222 21.341 8.91C21.614 9.265 21.864 9.657 22.087 10.076ZM21.57 12C21.4079 11.5413 21.2123 11.0951 20.985 10.665C20.295 9.371 19.464 8.602 18.626 8.346V12H21.57Z" fill="white"/>
</svg>
