<svg width="35" height="35" viewBox="0 0 35 35" fill="none" xmlns="http://www.w3.org/2000/svg">
<rect width="35" height="35" rx="5.01818" fill="#3D7172"/>
<path fill-rule="evenodd" clip-rule="evenodd" d="M10.356 8.639C10.5746 8.42062 10.8372 8.25119 11.1262 8.14194C11.4153 8.0327 11.7243 7.98613 12.0327 8.00533C12.3412 8.02452 12.642 8.10904 12.9153 8.25328C13.1886 8.39752 13.4281 8.59819 13.618 8.842L15.862 11.725C16.0649 11.986 16.2058 12.2897 16.2741 12.6131C16.3423 12.9366 16.3362 13.2713 16.256 13.592L15.572 16.33C15.5367 16.4719 15.5387 16.6205 15.5778 16.7613C15.6168 16.9022 15.6917 17.0306 15.795 17.134L18.865 20.204C18.9685 20.3077 19.0973 20.3828 19.2385 20.4219C19.3798 20.461 19.5288 20.4628 19.671 20.427L22.407 19.744C22.7278 19.6636 23.0626 19.6572 23.3863 19.7253C23.7099 19.7934 24.0138 19.9342 24.275 20.137L27.157 22.38C27.4013 22.5697 27.6025 22.8092 27.7471 23.0827C27.8917 23.3561 27.9765 23.6572 27.9958 23.9659C28.0151 24.2747 27.9685 24.584 27.859 24.8733C27.7496 25.1626 27.5798 25.4253 27.361 25.644L26.068 26.936C25.143 27.861 23.761 28.267 22.472 27.814C19.1736 26.6533 16.1789 24.765 13.71 22.289C11.234 19.8201 9.34562 16.8254 8.18497 13.527C7.73197 12.24 8.13797 10.857 9.06297 9.931L10.356 8.64V8.639Z" fill="white"/>
</svg>
