<svg width="35" height="35" viewBox="0 0 35 35" fill="none" xmlns="http://www.w3.org/2000/svg">
<rect width="35" height="35" rx="5.01818" fill="#3D7172"/>
<path d="M14.4319 24.8C21.6769 24.8 25.6409 18.795 25.6409 13.598C25.6409 13.43 25.6409 13.26 25.6339 13.092C26.4053 12.5331 27.0711 11.8413 27.5999 11.049C26.8794 11.3669 26.1158 11.5765 25.3339 11.671C26.1575 11.1786 26.7744 10.404 27.0699 9.491C26.2957 9.9494 25.4483 10.2711 24.5649 10.442C23.9712 9.80952 23.1854 9.39051 22.3294 9.24987C21.4733 9.10924 20.5948 9.25483 19.8299 9.66411C19.065 10.0734 18.4565 10.7235 18.0985 11.5137C17.7405 12.3039 17.6531 13.1901 17.8499 14.035C16.2836 13.9564 14.7514 13.5494 13.3525 12.8405C11.9537 12.1316 10.7195 11.1366 9.7299 9.92C9.22742 10.7878 9.07409 11.8144 9.30105 12.7911C9.52802 13.7679 10.1183 14.6217 10.9519 15.179C10.3271 15.1577 9.71595 14.9899 9.1679 14.689V14.743C9.16899 15.6521 9.48395 16.533 10.0595 17.2366C10.6351 17.9403 11.4361 18.4237 12.3269 18.605C11.7481 18.762 11.1412 18.7856 10.5519 18.674C10.8034 19.4566 11.2935 20.1408 11.9534 20.6309C12.6133 21.121 13.41 21.3924 14.2319 21.407C12.8357 22.5033 11.1111 23.0979 9.3359 23.095C9.02309 23.0963 8.71049 23.0783 8.3999 23.041C10.2018 24.1902 12.2947 24.8005 14.4319 24.8Z" fill="white"/>
</svg>
