<svg width="35" height="35" viewBox="0 0 35 35" fill="none" xmlns="http://www.w3.org/2000/svg">
<rect width="35" height="35" rx="5.01818" fill="#3D7172"/>
<path d="M18 7C15.286 7 14.945 7.013 13.879 7.06C12.813 7.11 12.086 7.277 11.45 7.525C10.7827 7.77612 10.1783 8.16997 9.679 8.679C9.17029 9.17853 8.7765 9.78287 8.525 10.45C8.277 11.085 8.109 11.812 8.06 12.875C8.013 13.944 8 14.284 8 17.001C8 19.716 8.013 20.056 8.06 21.122C8.11 22.188 8.277 22.914 8.525 23.55C8.77653 24.2171 9.17032 24.8215 9.679 25.321C10.1776 25.8303 10.7818 26.2242 11.449 26.475C12.086 26.722 12.811 26.891 13.876 26.94C14.944 26.987 15.284 27 18 27C20.716 27 21.055 26.988 22.122 26.94C23.186 26.89 23.915 26.722 24.552 26.475C25.219 26.2238 25.8231 25.83 26.322 25.321C26.8303 24.8214 27.2238 24.217 27.475 23.55C27.721 22.914 27.89 22.187 27.94 21.122C27.987 20.056 28 19.716 28 17C28 14.284 27.988 13.944 27.94 12.876C27.89 11.812 27.721 11.085 27.475 10.45C27.2236 9.78284 26.8298 9.17849 26.321 8.679C25.8219 8.16977 25.2174 7.77589 24.55 7.525C23.913 7.277 23.185 7.109 22.121 7.06C21.054 7.013 20.715 7 17.998 7H18ZM17.104 8.803H18C20.67 8.803 20.987 8.811 22.04 8.86C23.015 8.904 23.545 9.068 23.898 9.204C24.364 9.385 24.698 9.603 25.048 9.952C25.398 10.302 25.614 10.635 25.795 11.102C25.933 11.454 26.095 11.984 26.139 12.959C26.188 14.012 26.198 14.329 26.198 16.998C26.198 19.666 26.188 19.984 26.139 21.038C26.095 22.012 25.932 22.541 25.795 22.894C25.6349 23.3282 25.3792 23.7208 25.047 24.043C24.7245 24.375 24.3314 24.6303 23.897 24.79C23.547 24.927 23.017 25.09 22.04 25.135C20.987 25.182 20.67 25.194 18 25.194C15.33 25.194 15.013 25.183 13.959 25.135C12.984 25.09 12.455 24.927 12.103 24.79C11.6687 24.6301 11.2757 24.3748 10.953 24.043C10.6202 23.7205 10.3639 23.3276 10.203 22.893C10.067 22.541 9.903 22.011 9.859 21.036C9.812 19.982 9.802 19.666 9.802 16.995C9.802 14.325 9.812 14.01 9.859 12.956C9.904 11.981 10.067 11.451 10.204 11.099C10.385 10.633 10.603 10.299 10.953 9.949C11.2754 9.61665 11.6685 9.36102 12.103 9.201C12.455 9.064 12.984 8.901 13.959 8.856C14.882 8.814 15.239 8.801 17.103 8.8V8.803H17.104ZM23.339 10.463C23.0207 10.463 22.7155 10.5894 22.4905 10.8145C22.2654 11.0395 22.139 11.3447 22.139 11.663C22.139 11.9813 22.2654 12.2865 22.4905 12.5115C22.7155 12.7366 23.0207 12.863 23.339 12.863C23.6573 12.863 23.9625 12.7366 24.1875 12.5115C24.4126 12.2865 24.539 11.9813 24.539 11.663C24.539 11.3447 24.4126 11.0395 24.1875 10.8145C23.9625 10.5894 23.6573 10.463 23.339 10.463ZM18 11.865C16.6378 11.8438 15.3231 12.3645 14.3449 13.3127C13.3667 14.2609 12.8052 15.5588 12.784 16.921C12.7628 18.2832 13.2835 19.5979 14.2317 20.5761C15.1799 21.5543 16.4778 22.1158 17.84 22.137C19.2022 22.1582 20.5169 21.6375 21.4951 20.6893C22.4733 19.7411 23.0348 18.4432 23.056 17.081C23.0772 15.7188 22.5565 14.4041 21.6083 13.4259C20.6601 12.4477 19.3622 11.8862 18 11.865ZM18 13.666C18.4378 13.666 18.8714 13.7522 19.2759 13.9198C19.6804 14.0873 20.0479 14.3329 20.3575 14.6425C20.6671 14.9521 20.9127 15.3196 21.0802 15.7241C21.2478 16.1286 21.334 16.5622 21.334 17C21.334 17.4378 21.2478 17.8714 21.0802 18.2759C20.9127 18.6804 20.6671 19.0479 20.3575 19.3575C20.0479 19.6671 19.6804 19.9127 19.2759 20.0802C18.8714 20.2478 18.4378 20.334 18 20.334C17.1158 20.334 16.2678 19.9827 15.6425 19.3575C15.0173 18.7322 14.666 17.8842 14.666 17C14.666 16.1158 15.0173 15.2678 15.6425 14.6425C16.2678 14.0173 17.1158 13.666 18 13.666Z" fill="white"/>
</svg>
