<svg width="18" height="24" viewBox="0 0 18 24" fill="none" xmlns="http://www.w3.org/2000/svg">
<path d="M1.43459 23.3818C1.10427 23.3818 0.787482 23.2505 0.553911 23.017C0.32034 22.7834 0.189121 22.4666 0.189121 22.1363L0.00230053 3.87768C-0.0126967 3.50696 0.0457463 3.13693 0.174268 2.78888C0.30279 2.44082 0.498855 2.12161 0.751185 1.84961C1.00352 1.5776 1.30713 1.35816 1.64458 1.20391C1.98202 1.04967 2.34662 0.963654 2.71743 0.950823L14.6615 0.88855C15.0328 0.895035 15.3992 0.974602 15.7397 1.12271C16.0802 1.27081 16.3883 1.48455 16.6462 1.75172C16.9041 2.01889 17.1069 2.33426 17.2429 2.6798C17.3789 3.02534 17.4455 3.3943 17.4389 3.76559L17.6133 22.0242C17.6154 22.2424 17.5601 22.4574 17.453 22.6476C17.3459 22.8378 17.1907 22.9965 17.003 23.1078C16.8136 23.2171 16.5989 23.2746 16.3802 23.2746C16.1616 23.2746 15.9468 23.2171 15.7575 23.1078L8.65832 19.1721L2.06978 23.1949C1.87468 23.3039 1.65763 23.3678 1.43459 23.3818ZM8.60851 16.4694C8.82498 16.4693 9.03839 16.5205 9.23124 16.6188L15.0974 19.8695L14.948 3.74068C14.948 3.49158 14.786 3.31722 14.6864 3.32967L2.72988 3.44177C2.63024 3.44177 2.49324 3.60368 2.49324 3.85277L2.6427 19.9193L7.97332 16.6438C8.16691 16.5329 8.38544 16.4729 8.60851 16.4694Z" fill="#242424"/>
</svg>
