<svg width="35" height="35" viewBox="0 0 35 35" fill="none" xmlns="http://www.w3.org/2000/svg">
<rect width="35" height="35" rx="5.01818" fill="#3D7172"/>
<path d="M18.0619 10.28H18.1679C19.1549 10.283 24.1529 10.319 25.4999 10.681C25.9073 10.7915 26.2786 11.0071 26.5766 11.3061C26.8746 11.6051 27.0888 11.9772 27.1979 12.385C27.3199 12.841 27.4049 13.445 27.4619 14.068L27.4739 14.193L27.5009 14.505L27.5109 14.629C27.564 15.4109 27.5934 16.1943 27.5989 16.978V17.068C27.5928 17.8928 27.5601 18.7173 27.5009 19.54L27.4909 19.666L27.4809 19.79C27.4209 20.477 27.3309 21.159 27.1979 21.66C27.0892 22.068 26.8751 22.4402 26.577 22.7393C26.279 23.0384 25.9075 23.2539 25.4999 23.364C24.1079 23.738 18.8179 23.764 18.0839 23.766H17.9139C17.5439 23.766 16.0099 23.759 14.4019 23.704L14.1979 23.696L14.0929 23.692L13.8879 23.683L13.6829 23.675C12.3509 23.616 11.0829 23.521 10.4979 23.363C10.0904 23.2529 9.7191 23.0375 9.42109 22.7386C9.12307 22.4398 8.90885 22.0678 8.7999 21.66C8.6669 21.16 8.5779 20.477 8.5179 19.79L8.5079 19.665L8.4979 19.54C8.43882 18.7269 8.40614 17.9122 8.3999 17.097V16.949C8.4029 16.691 8.4119 15.799 8.4769 14.815L8.4859 14.692L8.4889 14.629L8.4989 14.505L8.5249 14.192L8.5369 14.068C8.5949 13.445 8.6799 12.84 8.8009 12.385C8.90978 11.9769 9.12408 11.6047 9.4223 11.3056C9.72051 11.0065 10.0921 10.7911 10.4999 10.681C11.0849 10.525 12.3529 10.429 13.6849 10.369L13.8889 10.361L14.0949 10.354L14.1989 10.35L14.4039 10.342C15.5459 10.305 16.6879 10.285 17.8309 10.281H18.0629V10.279L18.0619 10.28ZM16.0799 14.13V19.912L21.0689 17.022L16.0799 14.13Z" fill="white"/>
</svg>
