<svg width="35" height="35" viewBox="0 0 35 35" fill="none" xmlns="http://www.w3.org/2000/svg">
<rect width="35" height="35" rx="5.01818" fill="#3D7172"/>
<path d="M8.4599 12.666C8.58088 12.1359 8.87829 11.6626 9.30341 11.3236C9.72853 10.9846 10.2562 10.8 10.7999 10.8H25.1999C25.7436 10.8 26.2713 10.9846 26.6964 11.3236C27.1215 11.6626 27.4189 12.1359 27.5399 12.666L17.9999 18.496L8.4599 12.666ZM8.3999 14.036V22.561L15.3639 18.291L8.3999 14.036ZM16.5139 18.996L8.6299 23.828C8.82468 24.2386 9.13199 24.5855 9.51612 24.8284C9.90026 25.0713 10.3454 25.2001 10.7999 25.2H25.1999C25.6545 25.2002 26.0998 25.0712 26.484 24.8281C26.8681 24.5851 27.1754 24.2379 27.3699 23.827L19.4859 18.995L17.9999 19.903L16.5139 18.995V18.996ZM20.6369 18.293L27.5999 22.56V14.036L20.6369 18.291V18.293Z" fill="white"/>
</svg>
