<svg width="46" height="46" viewBox="0 0 46 46" fill="none" xmlns="http://www.w3.org/2000/svg">
<rect width="46" height="46" rx="5.01818" fill="#3D7172"/>
<g clip-path="url(#clip0_117_1019)">
<path d="M16.471 32.0647C16.1948 32.0647 15.9298 31.955 15.7345 31.7596C15.5391 31.5643 15.4294 31.2993 15.4294 31.0231L15.2731 15.7522C15.2606 15.4422 15.3094 15.1327 15.4169 14.8416C15.5244 14.5505 15.6884 14.2835 15.8994 14.056C16.1105 13.8285 16.3644 13.645 16.6466 13.516C16.9289 13.387 17.2338 13.3151 17.5439 13.3043L27.5335 13.2522C27.8441 13.2577 28.1505 13.3242 28.4353 13.4481C28.7201 13.572 28.9777 13.7507 29.1934 13.9742C29.4092 14.1976 29.5787 14.4614 29.6925 14.7504C29.8062 15.0394 29.862 15.348 29.8564 15.6585L30.0023 30.9293C30.0041 31.1119 29.9578 31.2917 29.8683 31.4507C29.7787 31.6098 29.6489 31.7425 29.4919 31.8356C29.3335 31.927 29.1539 31.9751 28.971 31.9751C28.7882 31.9751 28.6085 31.927 28.4502 31.8356L22.5127 28.5439L17.0023 31.9085C16.8391 31.9996 16.6576 32.053 16.471 32.0647ZM22.471 26.2835C22.6521 26.2834 22.8306 26.3263 22.9919 26.4085L27.8981 29.1272L27.7731 15.6377C27.7731 15.4293 27.6377 15.2835 27.5544 15.2939L17.5544 15.3877C17.471 15.3877 17.3564 15.5231 17.3564 15.7314L17.4814 29.1689L21.9398 26.4293C22.1017 26.3366 22.2845 26.2864 22.471 26.2835Z" fill="white"/>
</g>
<defs>
<clipPath id="clip0_117_1019">
<rect width="25.0909" height="25.0909" fill="white" transform="translate(10 9.99998)"/>
</clipPath>
</defs>
</svg>
