<svg width="46" height="46" viewBox="0 0 46 46" fill="none" xmlns="http://www.w3.org/2000/svg">
<rect width="46" height="46" rx="5.01818" fill="#242424"/>
<path d="M30.7917 13.125H18.2917C17.4629 13.125 16.668 13.4542 16.082 14.0403C15.4959 14.6263 15.1667 15.4212 15.1667 16.25V28.75C15.1667 29.5788 15.4959 30.3737 16.082 30.9597C16.668 31.5458 17.4629 31.875 18.2917 31.875H30.7917C31.068 31.875 31.3329 31.7653 31.5283 31.5699C31.7236 31.3746 31.8334 31.1096 31.8334 30.8333V14.1667C31.8334 13.8904 31.7236 13.6254 31.5283 13.4301C31.3329 13.2347 31.068 13.125 30.7917 13.125ZM18.2917 15.2083H29.75V25.625H18.2917C17.9363 25.6278 17.5841 25.6912 17.25 25.8125V16.25C17.25 15.9737 17.3598 15.7088 17.5551 15.5134C17.7505 15.3181 18.0154 15.2083 18.2917 15.2083ZM18.2917 29.7917C18.0154 29.7917 17.7505 29.6819 17.5551 29.4866C17.3598 29.2912 17.25 29.0263 17.25 28.75C17.25 28.4737 17.3598 28.2088 17.5551 28.0134C17.7505 27.8181 18.0154 27.7083 18.2917 27.7083H29.75V29.7917H18.2917Z" fill="white"/>
</svg>
