<svg width="35" height="35" viewBox="0 0 35 35" fill="none" xmlns="http://www.w3.org/2000/svg">
<rect width="35" height="35" rx="5.01818" fill="#3D7172"/>
<path d="M28.0799 17.539C28.0799 12.204 23.7819 7.879 18.4799 7.879C13.1759 7.88 8.87793 12.204 8.87793 17.54C8.87793 22.36 12.3889 26.357 16.9779 27.081V20.331H14.5419V17.541H16.9799V15.411C16.9799 12.99 18.4139 11.653 20.6069 11.653C21.6569 11.653 22.7559 11.841 22.7559 11.841V14.217H21.5459C20.3539 14.217 19.9819 14.962 19.9819 15.727V17.539H22.6429L22.2179 20.33H19.9799V27.08C24.5699 26.355 28.0799 22.36 28.0799 17.539Z" fill="white"/>
</svg>
